<svg xmlns="http://www.w3.org/2000/svg" width="514" height="514" fill="none">
    <path stroke="#00ADB5" stroke-linecap="round" stroke-linejoin="round" stroke-opacity=".5" d="M149.69 414.1c-1.31.18-2.85.29-3.16 1.84a4.47 4.47 0 0 0 .57 3.5c1.24 1.8 3.07 2.84 5.29 2.47 1.98-.33 4.7-2.12 4.7-4.35 0-1.26-.9-2.52-1.66-3.46-.8-1-1.5-2.07-2.5-2.9-1.36-1.1-2.47-1.21-3.69.1-.67.71-1.3 1.7-1.6 2.63-.14.46-.03.84-.03 1.3 0 .62-.12-.3 0-.6"/>
    <path stroke="#00ADB5" stroke-linecap="round" stroke-linejoin="round" stroke-opacity=".5" d="M156.47 417.63c1.11.99 2.06 1.88 4.03 1.93 1.38.04 2.75-.3 4.05-.68.92-.26 3.89-1.67 1.48-1.78"/>
    <path stroke="#00ADB5" stroke-linecap="round" stroke-linejoin="round" stroke-opacity=".5" d="M167.96 409c-1.47 1.63-3.5 4.8-2.74 7.25.27.85.66 1.43 1.16 2.16 1.01 1.48 2.58 1.02 4 .63 1.04-.28 2.27-1.16 2.66-2.16.55-1.38-.59-3.53-1.54-4.49-1.06-1.06-1.9-2.35-3.08-3.28-.32-.24-.56-.51-.97-.42-.46.1-.65.54-.03.54m104.45-222.65c-1.31.2-2.85.3-3.16 1.86a4.46 4.46 0 0 0 .57 3.5c1.24 1.79 3.08 2.83 5.29 2.46 1.98-.33 4.7-2.12 4.7-4.35 0-1.26-.9-2.52-1.66-3.46-.8-1-1.5-2.07-2.5-2.89-1.36-1.11-2.46-1.22-3.69.09a7.5 7.5 0 0 0-1.6 2.63c-.14.47-.03.84-.03 1.3 0 .62-.12-.3 0-.6"/>
    <path stroke="#00ADB5" stroke-linecap="round" stroke-linejoin="round" stroke-opacity=".5" d="M278.65 190.12c1.11 1 2.06 1.88 4.03 1.93 1.38.04 2.75-.3 4.05-.68.92-.26 3.89-1.67 1.48-1.78"/>
    <path stroke="#00ADB5" stroke-linecap="round" stroke-linejoin="round" stroke-opacity=".5" d="M290.13 181.5c-1.46 1.62-3.5 4.8-2.73 7.24.27.85.66 1.43 1.16 2.16 1.01 1.48 2.58 1.02 4 .63 1.04-.28 2.27-1.16 2.66-2.16.55-1.38-.59-3.53-1.54-4.48-1.06-1.06-1.9-2.35-3.08-3.28-.32-.25-.56-.52-.97-.43-.46.1-.65.55-.03.55M159.13 139.4c7.54-3.6 13.64-9.55 19.78-15.15 4.82-4.4 9.87-8.76 15.2-12.56 1.04-.75 2.53-2.26 3.95-1.62 1.4.64 2.21 2.38 3.33 3.4a65.7 65.7 0 0 1 7.45 8.6c2.47 3.28-1.24 5.1-3.54 7.24-2.6 2.43-5.1 4.94-7.95 7.1-2.7 2.04-4.88 4.85-7.36 7.16-3.78 3.53-7.32 7.28-11.09 10.81-2.24 2.1-4.81 3.82-6.97 6-.76.75-1.46 1.76-2.33 2.4-.7.5-1.67-1.46-1.92-1.82-1.99-2.93-5.05-4.94-7-8-1.21-1.93-2.03-4.3-3.5-6.07-.7-.84-2.43-2.73-1.67-3.96.78-1.25 3-1.85 4.2-2.75.94-.7 2.08-1.56 3.16-2.05.77-.35 1.54-.98 2.23-1.46 1.84-1.27-.1-.72-1.34-.25"/>
    <path stroke="#00ADB5" stroke-linecap="round" stroke-linejoin="round" stroke-opacity=".5" d="M160.28 145.15c4.6 2.84 8.71 6.96 12.3 11.02.09.1.96.7.83.93-.26.44-3.24-1.53-3.52-1.72m-5.06-14.34c3.73 1.06 5.95 3.1 8.95 5.26 1.34.97 2.7 1.84 3.91 2.98.56.53.97 1.24 1.49 1.81.71.8-2.2-.91-2.55-1.1m-6.39-12.14c2.61 2.35 5.23 4.67 7.92 6.93 1.02.86 2.18 1.64 3.06 2.65 1.57 1.8-.48-.53-1.18-1.19m-6.14-10.64c1.93 1.18 3.95 2.32 5.59 3.9.67.66 1.22 1.42 1.94 2.02.89.75 1.66 1.61 2.55 2.33 1.27 1.03 1.46 1.33-.04.04m-5.34-11.74a42.15 42.15 0 0 1 5.9 5.4c.78.9 1.42 1.95 2.42 2.64.92.63 1.57.82.5-.21m-4.28-11.34c1.88 1.4 3.73 2.7 5.23 4.51.68.84 1.22 1.8 2 2.56 1.55 1.56.48.77-.65-.29m-2.4-10.43c2.63 2.52 4.84 5.47 7.48 7.96 1.78 1.68-.77-1-1.18-1.48m-1.2-9.39c2.22-.9 4.52-1.98 5.72-4.2.32-.6.75-1.14.88-1.83.19-.94.15-.53-.55.08m-2.47 9c1.75-1.63 3.72-3.41 5.01-5.49.64-1.03 1.87-2.3.16-.8m.46 9.72c1.6-1.75 3.03-3.37 4.51-5.19.48-.59 1.93-1.35.18-.89m-5.96 5.19a31.53 31.53 0 0 0 4.9-4.92c.36-.49.63-1.03.96-1.53.54-.84.58-.56-.25-.47"/>
    <path stroke="#00ADB5" stroke-linecap="round" stroke-linejoin="round" stroke-opacity=".5" d="M164.8 148.05c8.37-3.4 10.43-12.61 17.24-17.82.83-.64 1.5-1.34 2.47-1.78.65-.3 1.45-.43 2.03-.8.36-.24 3.34-2.52 1.27-1.57"/>
    <path stroke="#00ADB5" stroke-linecap="round" stroke-linejoin="round" stroke-opacity=".5" d="M160.91 145.59a14.56 14.56 0 0 1 2.97-2.94c.2-.14.5-.16.65-.34.32-.36.8-.88.93-1.35.48-1.81 2.84-1.48 4.09-2.4 1.2-.86 2.34-1.74 3.55-2.6 1.34-.94 1.96-1.77 3.03-2.98 1-1.1 1.95-2.23 3-3.28.85-.86 2.2-1.65 2.74-2.75.61-1.24 2.18-2.67 3.6-2.44.48.08 4.04 2.15 1.72.83m-18.71 24.69c6.28-3.31 9.77-10.53 14.01-16 1.56-2 3.8-3.34 5.43-5.31.7-.85 2.25-1.75.45-1.73m-17.65 25.09c5.7-3.5 9.34-10.01 13.48-15.17 1.89-2.35 3.7-4.74 5.61-7.07.87-1.06 2.39-1.73.44-.64m-17.28 26.53c3.55-3.46 6.42-7.2 9.32-11.2 1.77-2.44 3.3-5.18 5.37-7.38 1.2-1.25 2.1-2.73 3.19-4.06.44-.54.74-1.17 1.18-1.7 1.01-1.2.3-.11-.4.54m-17.83 25.32c1.77-1.73 4.36-3.4 5.54-5.65.43-.81 1.48-2.78 2.23-3.28.98-.66 1.45-2.06 2.16-2.94.75-.92 1.48-1.82 2.28-2.7.76-.81 1-2.25 1.94-2.96 1.05-.78 1.56-2 2.39-2.94.72-.81 2.1-1.65 2.99-2.27.5-.34.84-.81 1.4-1.07 1.14-.52.4-.25-.64-.3m-1.81-10.41c1.46.39 3.26.65 4.6 1.45.86.51 1.6 1.03.04.1m-3.12-3.98c2.08.54 3.56 1.15 5.26 2.26 1.11.72.93.52-.23-.18m-2.5-4.55c1.79 1 3.53 2.15 5.38 3.03 1.09.52.52.48-.33.07m-3.61-5.07c1.88.86 3.62 1.71 5.35 2.8.8.48.07.52-.53.12"/>
    <path stroke="#00ADB5" stroke-linecap="round" stroke-linejoin="round" stroke-opacity=".5" d="M193.2 121.88c1.43-1.7 2.85-3.3 4.15-5.03.37-.5 2.6-3.24 1.64-1.83m-4.29 9.83c1.85-1.64 4.52-3.82 5.11-6.27.18-.72.56-1.44 1.12-1.93.57-.5 1.16-.73.31.11m-8.03 8.04c1.98-2.14 3.66-3.56 4.78-6.18.29-.69.62-1.25 1.1-1.78.5-.57 1.22-1.1.25-.09m1.21 9.09c.9.57 1.82 1.1 2.76 1.59.4.2-.09-.19-.26-.25m-.73-4.19c.06.05 3.63 3.12 3 2.43m-.88-3.54c.79.76 3.2 2.98 2.35 2.29"/>
    <path stroke="#00ADB5" stroke-linecap="round" stroke-linejoin="round" stroke-opacity=".5" d="M199.5 127.05c1.3-1.22 4.16-3.63 4.87-5.5.27-.74 1.54-1.68.35-.67"/>
    <path stroke="#00ADB5" stroke-linecap="round" stroke-linejoin="round" stroke-opacity=".5" d="M199.66 127.41c.12.1 2.62 2.8 3.15 1.49.27-.67.63-1.54 1.3-1.9 1.17-.65 1.38-2.68 2.58-3.22 1.36-.62 1.23-1.66-.03-2.02-.5-.15-.1-1.13-.63-1.05-.47.07-.72-.1-1.25 0m-12.67 1.66c.86 1.64 1.02 2.23 2.4 2.91.38.19.87-.07 1.15.08.56.28 1.67.29 2.09-.23.84-1.04 1.15-1.7 2.44-2.34a4.64 4.64 0 0 0 1.84-2.12c.41-.85 1.16-1.5 1.6-2.36.18-.37-1.32-1.3-1.34-1.94 0-.18-1.78-.19-2.08-.34-.36-.18-.52-.44-.7-.82-.25-.55-.7.14-1.37.19m-35.71 27.75c2.03.77 3.8 1.76 5.62 2.86 1.58.95 3.37 1.46 4.94 2.38 1.12.66 2.28 2.16 3.1 3.15.28.33.49.63.68 1 .45.85-.02-1.2-.06-1.43m5.27-23.41c.56.6 2.84 3.84 2.39 1.4m2.29 224.47c.24 1.24.85 2.05 1.33 3.17.32.77.93 1.37 1.26 2.12.37.81.91 1.77 1.42 2.5.43.61.72 1.2 1.27 1.75.96.97 1.7 2.12 2.67 3.08 1.41 1.38 3.81 3.2 5.87 3.08.66-.03 1.4.17 2.05.07a5.98 5.98 0 0 1 1.79-.01c.92.16 1.91 0 2.79.19.47.1.99-.05 1.47.04.62.11 1.35.14 1.98.14 2.08 0 4.15-.01 6.21-.27 1.13-.15 2.23.22 3.34.03 1.05-.19 2.43 0 3.41-.42 1.2-.53 2.4-1.36 3.33-2.29.47-.47.82-1.02 1.14-1.6.41-.76.65-1.57 1.06-2.33 1.46-2.63 2.28-5.57 3.46-8.31.28-.65.74-1.18 1.07-1.77.08-.15.12-.35.26-.5.51-.54-.47-.6-.93-.8"/>
    <path stroke="#00ADB5" stroke-linecap="round" stroke-linejoin="round" stroke-opacity=".5" d="M186.43 353.69c1.03-1.35 1.9-2.34 3.4-3.1 1.25-.64 2.55-1.4 3.68-2.23 1.74-1.28 4.14-1.85 6.25-2.23 2.3-.42 4.58-.91 6.92-.91.73 0 1.44.22 2.17.23.87.01 1.74.04 2.6.12 1.33.1 2.7.08 4.02.11 1.86.04 3.63 1 5.49 1.15 1.1.09 2.39.25 3.46.55.4.12.86.2 1.24.37.46.23.8.62 1.22.88 1.38.86 2.93 1.27 4.43 1.92.45.2 1.24.55 1.75.55.7 0 .66 1.28.66 0m-.12.8a6.95 6.95 0 0 1-2.67 2.25c-.95.53-2 .9-3.07 1.1-1 .18-2.08.32-3.1.4-.83.07-1.69-.03-2.55.07-1.94.22-3.9.72-5.76 1.26-2.67.78-5.25.87-8.01 1.01a34.7 34.7 0 0 1-8.98-.67c-1-.21-2.05-.02-3.06-.06-1.11-.05-2.2-.36-3.26-.72-.44-.15-.84-.39-1.3-.5-.55-.11-1.1-.07-1.64-.2a7.12 7.12 0 0 1-2.26-.94c-.28-.2-.69-.35-.9-.64a.83.83 0 0 1-.15-.37c0-.24-.2-.18.12.03m21.83 9.68c.7-.08 1.63-.07 1.34-.97-.1-.3-.33-.32-.58-.4-.74-.25-2.07.23-2.35 1-.5 1.39.45 2.89 1.94 2.4.4-.12 1.12-.41 1.38-.78.3-.44-.16-.3-.47-.74"/>
    <path stroke="#00ADB5" stroke-linecap="round" stroke-linejoin="round" stroke-opacity=".5" d="M206.7 362.1a6.4 6.4 0 0 1 2.83-.64c.45 0 .68-.03 1.08.23.66.44.9 1.26.82 1.99a9.14 9.14 0 0 1-.47 2.03c-.16.44-.56.51-.97.6-.37.07-1.18-.14-1.47.02-.3.17-1.26.23-1.5-.09-.22-.3-.45-.42-.62-.78-.15-.34-.22-.66-.34-1-.17-.47-.47-1.74.16-2.02.37-.16.52-.26.95-.26.12 0 .22.09.34.09.18 0-.34-.12-.52-.12m1.73-4.66c.81-1.05 1.56-2.13 2.4-3.16.45-.54 1-1.02 1.5-1.54 1.39-1.5 2.8-3.15 3.87-4.9a20.4 20.4 0 0 1 4.02-4.92c.82-.69 1.55-1.45 2.26-2.24.7-.77 1.01-1.84 1.66-2.65.51-.63 3.83-4.9 4.4-2.3.23 1.02-.76 1.73-1.39 2.36a23.3 23.3 0 0 0-2.03 2.41c-.58.78-1.29 1.47-1.85 2.25-.78 1.07-2.18 1.83-2.74 3.04-.47 1-1.23 1.8-1.81 2.72-.8 1.29-1.74 2.36-2.68 3.53-.75.93-1.92 1.69-2.45 2.75-.44.88-1.23 1.26-1.94 1.83-.32.25-.7.39-.97.73-.1.12-.26.25-.34.12-.05-.07-.24.1-.2.17.12.3-.18-.69-.21-.78"/>
    <path stroke="#00ADB5" stroke-linecap="round" stroke-linejoin="round" stroke-opacity=".5" d="M208.26 357.78c.22.1 1.61 1.17 1.61.31 0-.25.34-.68.45-.95.1-.2-.7 0-.82.15-.16.2-.46.36.03.37.37.01.66-.15.95-.37.08-.06 1.18.11.2.08h-1.53c-.43 0 .45-.11.57-.11.1 0-.73.5-.87.33-.03-.04-.1-.15.05-.22m-18.96-3.86c.07.04 2.13 1.12 2.13.98.02-.16-.1-.3-.02-.46.35-.7.8-.36 1.4-.09.47.21-.24-2.12 1.17-1.14.72.51.92.43.8-.42-.1-.65.13-.65.69-.58.38.05.65.13.86-.23.26-.44.56-.69 1.1-.5.44.16.83.6 1.14.04.13-.25.02-.99.44-.84.27.09.62.43.92.32.23-.08.4-.8.66-.68.28.12.55.63.9.51.16-.06.47-.6.14-.53m-4.2 2.59c.71.58 3.38 3.68 4.17 1.36.14-.41.16-1.23.56-.55.32.56.8.95 1.34.42.35-.35.5-.95 1.01-1.14.46-.17.8.7 1.19.2.3-.41.16-1.12-.3-1.36-.15-.08-.19.2-.25.26m-1.56-2.77c1.11-.19 2.51-.57 3.36.42.4.46.35 1.05.1 1.58-.2.38-.7.57-1.03.2-.26-.31.28-.82.48-1 .68-.65 1.68.38 1.89 1.08.17.58-1.42 1.93-1.23 1.36m15.15-1.67c.33-.12 2.46-.8 2.05.33-.21.58-1.01.89-1.54 1.08-.25.09-.89.07-.47-.29.36-.31.87-.46 1.34-.42 1.85.15-.73 2.27-1.27 2.57-1.03.56-2.43 1.16-3.5.47"/>
    <path stroke="#00ADB5" stroke-linecap="round" stroke-linejoin="round" stroke-opacity=".5" d="M211.6 347.47c.44.71.97 1.43 1.34 2.18.13.25-.43-.4-.56-.66-.03-.07-.27-.83-.3-.82-.28.06-.34 1.34-.42 1.58-.36 1.12-1.24.7-2.11.6-1.06-.1-1.53.95-2.1 1.6-.47.54-.66.7-.34 1.33.25.52.36 1.01 0 1.47-.28.36-.64.6-.98.89-.3.27.14.23.08.06-.16-.44-1.15-.35-1.47-.33-1.2.08-2.42-.22-3.6-.15-.62.04-1.21.4-1.83.48-.63.1.2.64.44.8.4.27-.8-.57-1.24-.78-.74-.35-1.42-.62-1.8-1.4a5.42 5.42 0 0 0-1.37-1.87c-.22-.2-.25-.5-.14-.77.25-.61.81-1.12 1.37-1.45"/>
    <path stroke="#00ADB5" stroke-linecap="round" stroke-linejoin="round" stroke-opacity=".5" d="M211.49 349.77a8.94 8.94 0 0 0-4.34-1.67c-.6-.08-1.23-.5-1.62-.95-.34-.4-.15-.3-.56.25-.55.75-.96.08-1.68.28-1.08.3-2.02 1.31-3.13 1.5-.3.05-.22-.45-.6-.24-.64.37-1.13.72-1.87.84-.45.07-1.3.36-1.24.91m24.83-.92c1.4.13 2.8.12 4.2.27.48.05.73.25 1.07.57.31.28.8.96 1.24 1 .64.05.97-.21 1.57-.4.36-.11 1.51 0 1.14 0m-10.26.12c-1.5.98-2.3 2.48-3.9 3.38-.32.18-1.29.52-1.21 1.1.05.43 3.3-.9 3.79-1.14m6.91-1.97c.81.61 1.52 1.48 2.53 1.17.28-.08.86-.11 1.04-.3m197.73-25.97c-4.2.8-7.26 2.02-9.93 5.45-1.69 2.17-1.32 5.59-.21 7.9 1.82 3.79 6.3 5.93 10.35 6.12 4.72.21 11.27-1.17 12.24-6.8.51-3-2.37-5.86-3.71-8.33-1.1-2-2.75-4.72-5.06-5.57-.94-.35-3.13-.23-3.81.71-.31.42-.7.86-.93 1.33-.18.39.01-.97-.03-1.36"/>
    <path stroke="#00ADB5" stroke-linecap="round" stroke-linejoin="round" stroke-opacity=".5" d="M428.9 337.95c-1.13.59-2.97.97-1.98 2.25.23.3.55.28.82 0 .24-.24 1.43-1.47.55-1.76-1.79-.6-1.13 2.97.14 1.39.69-.85-.27-1.68-1.13-1.17-1.03.62-.22 1.7.59.76.6-.7.12-1.24-.54-.58-.59.59.01 1.53.6.73.59-.82-.1-1.51-.81-.8-.83.84.07.75.66.2.6-.55-.46-.47-.8-.04-.8 1.01.45.87.65 0 .3-1.26-1.02 1.65-.38-.57"/>
    <path stroke="#00ADB5" stroke-linecap="round" stroke-linejoin="round" stroke-opacity=".5" d="M424.27 333.73c1.21 1.6 2.45 3.1 3.47 4.7.28.45.05.9.2.88.58-.03 1.17-.13 1.78-.13 1.4 0 2.5-.68 3.84-.68 1.64 0 4.03-.43 1.34-1.77m-12-9.27c-.25-1.29-1.49-4.41.83-4.08.83.12 1.38.98 1.87 1.52 1.27 1.42 1.14 3.12-.92 3.24-.54.03-1.3 1.1-1.9.34-.7-.86 0-.8.13-1.84.08-.67-.37-.62-.56-1.28-.14-.51.16-1.07.28-1.44"/>
    <path stroke="#00ADB5" stroke-linecap="round" stroke-linejoin="round" stroke-opacity=".5" d="M423.73 325.96c-.02.33-.52 3.26.55 2.78.36-.16.66-.4.8-.76.15-.36 0-.58-.16-.93-.4-.9-1.58-2.3-1.23-.27.23 1.28 1.67.98 1.78-.24.08-.94-1.1-2.2-1.85-1.12-.53.75.42 2.42.97 1.25.28-.59-.4-2.1-1.1-1.36-.74.76.36 2.36 1.08 1.71.72-.64.23-2.59-.54-1.84-.7.68.35 2.03.9 1 .6-1.16-.73-2.04-1.14-.82-.37 1.08.77 2.24 1.04.77.2-1.13-1.86-1.72-1.86-.38 0 1.24 1.1 1.11 1.1-.01 0-1.18-1.18-.91-.69.07.5.99 1.16-.76.6-1.32-.64-.64-1.5.36-.74.98.52.42 1.23-1.34.36-1.67-.76-.28-.34 1.26-.08.91.4-.54-.21-.9.21-.8.38.1 1.3.3 1.56.64.2.26 1.02 1.71 1.02 2.1 0 1.15-1.77 1.77-2.78 1.48-.73-.2-.95.31-.69.14.62-.41.75-1.5.75-1.08m0 19.75c-.7 1.5-1.32 2.99-2.15 4.4-.19.31-.54.96-.58 1.33-.1.99.9-2.38 1.1-2.87m15.39-5.72c1.72 2.18 3.63 3.74 4.97 6.13.13.23.37.42.55.6.61.61-1.14-1.3-1.7-1.96"/>
    <path stroke="#00ADB5" stroke-linecap="round" stroke-linejoin="round" stroke-opacity=".5" stroke-width="2" d="M323.06 217.05c1.08 4.07 5.25 19.21 6.25 24.74 2.74 15.23-1.56-5.55-1.57 1.18"/>
    <path stroke="#00ADB5" stroke-linecap="round" stroke-linejoin="round" stroke-opacity=".5" stroke-width="2" d="M315.75 223.63c-.36-6.2-1.75-14.8 6.93-13.9 4.1.41 8.6 2.84 11.14 6.08 3.94 5.02 1.86 12.8-2.4 16.79a16.14 16.14 0 0 1-7.42 3.99c-5.02 1.36-1.06-5.61-.25-7.53m14.6 2.14c8.63-.45 16.58-2.15 19.67 7.2 1.8 5.45 3.98 12.06 2.48 17.8-1.35 5.18-4.26 8.41-9.58 6.2-7.61-3.15-7.6-9.08-3.46-15 1.52-2.19 7.36-6.55 7.37-9.1"/>
    <path stroke="#00ADB5" stroke-linecap="round" stroke-linejoin="round" stroke-opacity=".5" stroke-width="2" d="M353.91 221.1c-.3 2.28-.3 18.34-4.65 18.5-.81.03-1.5.45-2.2.8-2.75 1.37-1.08.14-.06-1.28 2.32-3.21 7-2.02 9.35-6.29 2.55-4.63 3.73-6.9.07-10.5-2.56-2.5-1.43-6.78-3.45-.76m13.68-15.05c3.34 7.51 6.39 17.3 11.74 23.83 1.42 1.73 2.21.23 2.19-1.12-.03-1.7-.5-3.41-1-5.02"/>
    <path stroke="#00ADB5" stroke-linecap="round" stroke-linejoin="round" stroke-opacity=".5" stroke-width="2" d="M356.97 226.06c5.29-2.09 18.29-4.2 20.5-10.8"/>
    <path stroke="#00ADB5" stroke-linecap="round" stroke-linejoin="round" stroke-opacity=".5" stroke-width="2" d="M373.25 206.77c22.94 40.13.59 11.92 12.25 4.58 7.08-4.45 7.67 16.55 9.63 7.46m-1.39-13.42c.83 2.49 3.63 18.92 9.45 15.16 2.6-1.68 5.63-4.88 6.13-8.02.54-3.38-1.56-11.95-6.34-11.03-2.17.42-5.82.53-7.24 2.6-1.37 2-2.24 6.68-.59 1.76M410 201.4c6.5-4.17 14.15-5.54 15.14 4.3.13 1.23.15 2.79.72 3.93.65 1.31-.7-3.23-1.97-3.96"/>
    <path stroke="#00ADB5" stroke-linecap="round" stroke-linejoin="round" stroke-opacity=".5" stroke-width="2" d="M409.52 205.18c.3 5.14-.44 12.1 1.96 16.93.08.16.65 1.42.37.73-.57-1.36-.8-2.29-1.88-3.77m-165.14 32.66c-.9 8.36.67 34.1-13.53 32.5-2.96-.34-5.64-.83-7.05-3.62-1.47-2.92-2.69-5.46-2.84-8.78-.18-4.07 1.45-6 4.74-7.83 1.16-.65-1.33 1.96-1.55 2.21-1.44 1.67 3.47-.36 5.34-.77"/>
    <path stroke="#00ADB5" stroke-linecap="round" stroke-linejoin="round" stroke-opacity=".5" stroke-width="2" d="M263.06 255.75c-7.18.67-17.32 2.03-18.48 11.02-.62 4.87 6.62 5.46 9.76 7.12 5.4 2.85 9.5 12.15 3.45 16.25-4.22 2.84-7.4 1.33-11.5 1.61-4.17.3-1.27-1.24 1.2-1.66m54.48-255.52c-.57 5.77-.92 11.6-1.63 17.35-.07.55-.62 2.74.03.97.47-1.29.32-2.64 1.07-3.86 1.05-1.69 5.75-8.11 7.97-7.46 4.43 1.3-.05 9.52-1.31 11.88-.44.81-1.64 2.57-1.02 3.48.83 1.22 2.35-3.27 2.41-3.4m9.99-15.17c-.52 2.58-4.94 15.3-.69 17.4 1.2.6 3.86-.53 4.69-1.5.85-1 .4-2.54.31-3.71"/>
    <path stroke="#00ADB5" stroke-linecap="round" stroke-linejoin="round" stroke-opacity=".5" stroke-width="2" d="M310.73 38.64c4.67 1.39 9.47 2.3 14.1 3.74 1.1.34 1.5.5 2.1 1.47.91 1.52-1.52.13-1.94-.33m6.84 4.13c-1.07 3.24-2.08 6.5-3.3 9.69-.24.63-.28.86-.4.38-.13-.46-.26-.74-.05-1.23 1.1-2.61 3.66-6.37 6.08-7.82 2.6-1.58 1.18 3.71.83 4.78-.4 1.2-1.45 4.5-.25 1.31.72-1.9 2.37-6.62 5.15-5.93 1.68.42 1.3 2.7 1 3.9l-1.65 6.64c-.8 3.25-.37 1.5.22-.88m13.11-17.92c-1.68 6.03-3.73 12.04-5.18 18.13-.17.72-.54 3.36.6 3.68 1.08.3 5.35-2.27 4.3-3.16M62.43 286.46c-3.97 7.53-7.92 15.06-11.9 22.59-1.12 2.14-3.36 8.7-3.64 6.3-.37-3.27 1.63-7.85 2.47-10.9 1.2-4.33 3.63-12.96 9.7-12.93 4.57.03 9.72 6.74 10.43 10.93.5 2.96 1.96-.38 3.94-1.28m1.28 9.41c2.67 6.2 6.6 16.67 14.68 10.9 3.71-2.64 1.87-7.17-1.8-8.61-8.99-3.53-20.31 6.32-22.56 14.41-2.24 8.1 6.61 10.58 12.7 11.37 3.36.45 2.6-2.43 5.5-3.43"/>
    <path stroke="#00ADB5" stroke-linecap="round" stroke-linejoin="round" stroke-opacity=".5" stroke-width="2" d="M97.1 332c-6.99-2.92-16.24-5.52-20.17 3.4-1.9 4.3 6.59 4.81 9.1 4.7 4.82-.24 15.52-11.37 11.91-8.18-3.16 2.8-6.36 6.1-7.67 10.23-.84 2.67.13 8.56 3.22 4.5m30.75-9.07c-10.13.97-22.14 1.48-25.73 12.87-1.77 5.6 2.38 9.48 7.37 11.13 3.5 1.14 7.05-1.35 9.17-3.88m18.4-18.58c-.56.68-25.52 27.88-13.62 28.1 3.3.05 6.67-1.86 8.94-4.02"/>
    <path stroke="#00ADB5" stroke-linecap="round" stroke-linejoin="round" stroke-opacity=".5" stroke-width="2" d="M112.3 344.07c4.8 3.3 9.52 6.8 14.78 9.36 1.36.67 3.64.98 4.58 2.36.53.77-.3-1.06-.4-1.33M58.85 126.25c4.02 6.88 16.8 26.95 11.6 20.9-3.3-3.87-5.82-9-7.93-13.57-2.2-4.8-4.27-13.37 4.13-12.94 7.21.38 10.1 7.74 11.36 13.78.56 2.66.7 4.73 1.9 7.16 1.22 2.47 1.29-7.07 1.75-9.55m3.17-19.76c.23 1.04 3.7 24.82 8.75 20.25 2.12-1.93 2.6-6.68 2.86-9.28.86-8.13-2.58-9.13-8.28-10.85-2.73-.82-3.29-.78-4.03 2.02-1.54 5.75.88 4.14 3.98.94m18.66-9.79c-2.8 4.72-6.38 10.28-4.4 16.07.81 2.4 2.72 1.76 4.05.41 2.1-2.13 3.2-5.64 3.08-8.57-.22-5.6-3.74-10.41-7.43-14.4-.5-.56-5.17-4.4-4.26-1.1 1.64 5.93 6.2 11.63 9.38 16.78 5.24 8.48 6.85 5.19 9.2-2.78m.51-4.94c1.73 1.62 15.46 11.43 15.89 2.73.04-.8-.97-1.04-1.3-1.71-.86-1.73-2.27-2.88-3.04-3.79"/>
    <path stroke="#00ADB5" stroke-linecap="round" stroke-linejoin="round" stroke-opacity=".5" stroke-width="2" d="M118.04 112.92c-5.44-7.14-13.03-14.56-5.25-21.62 3.28-2.97 10.09-.62 9.91 4.35-.08 2.31-.57 8.03-3.9 8.64-1.75.32-2.56-.83-.94-2.44m12.59-18.54c3.51 2.24 28.56 17.04 15.44 23.5-2.04 1.02-3.84-1.33-4.93-2.84-2.45-3.41 4.69-8.25 4.98-11.86m5.06-20.7c-2.04 1.67-13.78 12.05-4.55 14.06 5.1 1.1 9.92-3.97 13.79-6.5 6.24-4.1 7.56 3.77 5.84 8.2-1.05 2.72-9.81 11.6-7.42 4.54m61.6 365.94c-7.8 3.93-18.03 11.1-9.6 20.6 4.05 4.56 11.53 2.69 16.86 2.16 1.5-.15 5.63 1.3 4.5.3-2.43-2.17-4.18-2.03-4.91-5.68m16.32-20.01c0 5.75-.05 9.87 5.85 12.1 2.56.98 4.16 1.86 4.83 4.72.77 3.23-1.49 7.9-4.15 9.71-3.3 2.24-7.44 3.01-11.15 1.5-3.18-1.3.34-2.85 1.99-4.34m28.44-30.01c-1.04 4.01-5.7 14.74-1.55 18.9 1.68 1.67 4.92.74 6.99 1.23 2.06.48 3.82 2.05 5.1 3.68 2 2.58.09 6.5-2.23 8.31-3.6 2.82-8.74 1.58-12.93 1.58-2.3 0-.73-.16.4-1.58m-4.86-82.07c4.06-1.55 11.58-4.01 15.5-6.79 4.15-2.93-.19-3.77-2.4-3.07-3.73 1.19-5.98 5.1-7.25 8.55-3.33 9.07 7.27 19.32 16.18 18.28 8.24-.96 9.38-5 10.62-11.18"/>
    <path stroke="#00ADB5" stroke-linecap="round" stroke-linejoin="round" stroke-opacity=".5" stroke-width="2" d="M298.08 394.01c-.93 1.5-9.69 19.55-12.12 11.06"/>
    <path stroke="#00ADB5" stroke-linecap="round" stroke-linejoin="round" stroke-opacity=".5" stroke-width="2" d="M281.75 394.54c3.7 4.94 12.63 22.62 21.6 22.12 1.3-.07-.43-5.08-.53-5.8m3.16-16.32c2.04 11.97 6.13 48.13 3.8 36.22-1.2-6.14-12.18-39.39-2.51-38 4.19.6 14.88 6.7 12.08 12.31-1.58 3.15-11.35 4.25-7.05 2.1m13.69-4.21c1.3 6.78 2.55 13.54 3.69 20.34.19 1.16-.07.2-.41-.44-2.16-4.04-5.1-11.24-5-15.77.09-4.3 6-7.22 9.1-4.13m9.47 7.91c-.13 4.95 3.46 22.3 12 17.26 1.22-.73 4.24-2.5 4.33-4.1.05-.86-1.51-1.05-2.1-1.05-1.57 0-1.96-1.94-2.64-3.16"/>
    <path stroke="#00ADB5" stroke-linecap="round" stroke-linejoin="round" stroke-opacity=".5" stroke-width="2" d="M340.2 412.44c4.62-4.77 9.81-11.34 13.9-2.83 1.2 2.49.79 5.49-.2 7.98-1.6 4.04-7.3 5.63-5.8-.4m20.55-14.23c3.6 5.77 18.2 21.32 8.63 28.42-3.06 2.26-5.06 2.25-8.51 2.13-4.88-.17-2.3-1.4-.65-5.27m22.65-27.38c-1.1 1.32-15.18 14.93-6.62 16.38 3.16.54 6.06-1.37 8.96.56 5.23 3.49 3.99 8.21-.82 11.18-2.4 1.48-5.09 2.25-7.6 3.48-1.43.69.08-1.31.28-2.1"/>
    <path stroke="#00ADB5" stroke-linecap="round" stroke-linejoin="round" stroke-opacity=".5" stroke-width="2" d="M378.65 395.07c-1.22.9-14.39 8.2-12.52 12.63 2.36 5.6 3.14-1.29 3.57-3.68"/>
    <path stroke="#00ADB5" stroke-linecap="round" stroke-linejoin="round" stroke-opacity=".5" d="M54.97 222.8c2.35-5.54 1.39-10.36 1.39-16.09 0-1.11-.2-4.5.97-5.12 1.84-.96 3.57-1.6 5.75-1.6 1.45 0 2.9.05 4.36 0 1.44-.04 2.85-.63 4.28-.8 2.67-.33 5.44.13 8.07.13 2.1 0 4.25.27 6.26.27.36 0 1.82.17 2.05.37.72.64.51 1.65 1.08 2.2"/>
    <path stroke="#00ADB5" stroke-linecap="round" stroke-linejoin="round" stroke-opacity=".5" d="M89.04 202.66c.1 1.63.13 3.92.8 5.51.43 1.04.08 2.41.17 3.51.17 2.11-.14 4.17-.14 6.22 0 2.75.14 5.47.14 8.2 0 2.35-2.3 1.96-4.11 1.63-1.57-.29-3.67.28-5.3.3-3.16.04-6.32.28-9.48.28-2.63 0-4.59-.77-7.01-1.69-1.3-.49-2.08-.38-3.48-.38-1.31 0-2.4-.2-3.72.2-.77.25-2.16.04-2.6-.75-.53-.95.52-1.36.52-2.14 0-.65-.08-2.52.14-.76"/>
    <path stroke="#00ADB5" stroke-linecap="round" stroke-linejoin="round" stroke-opacity=".5" d="M70.7 206.24s.55.28 1.1.83c.55.41 1.71.2 2.69.2.51 0 1.05-.4 1.52-.6.93-.41.37.37.15.81-.25.5.03 1.42.48 1.73.74.5 1.47.07 2.2-.3.3-.14.21-.21.3 0 .13.27.1.67.1.97 0 .69-.04 1.83-.4 2.43-.5.79-.98 1.3-1.76 1.88-.77.57-1.79 1.57-2.81 1.57-2 0-4.13-.44-5.13-2.38-.42-.83-1.2-1.5-1.2-2.45 0-.79-.26-1.73 0-2.48.31-.91 1.1-1.78.82-1.78.14.04 1.38-.7 1.94-.43Zm2.27-.48c.78-.29 2.55-.89 2.97-1.83.32-.72-.75-.86-1.31-.86-.7 0-1.5.95-1.69 1.55l-.3 1.02c-.05.16.02.28.05.43.03.12 1.08-.44 1.04-.6"/>
    <path stroke="#00ADB5" stroke-opacity=".5" d="m86.9 221.27-30.53.67a5.94 5.94 0 0 0 .13 11.89h30.54a6 6 0 0 0 6-6v-.56a6 6 0 0 0-6.13-6Z"/>
    <path stroke="#00ADB5" stroke-linecap="round" stroke-linejoin="round" stroke-opacity=".5" d="M63.06 221.78c.46.7.85 1.56 1.38 2.22.26.33.22.26.73.07.86-.32 1.83-.09 2.72-.09.78 0 1.7-.4 2.46-.2.88.23 1.92-.22 2.79-.24 1.04-.03 2.04.07 3.08.07.63 0 1.24-.36 1.82-.36.34 0 1.3.26 1.32-.35.02-.3.15-.6.15-.9 0-.41-.25-.24-.66-.44"/>
    <path stroke="#00ADB5" stroke-linecap="round" stroke-linejoin="round" stroke-opacity=".5" stroke-width="2" d="M212.48 71c.57-.71 1.65-2.05.13-2.28-.34-.06-.67-.26-1-.1-1.04.47-2 1.5-2 2.74 0 1.97 2.15 2.4 3.72 2.37 2.65-.04 3.46-2.62 4.4-4.71.94-2.12 1.99-4.2 2.97-6.29 1.1-2.37 2.92-4.26 4.07-6.6.5-1.02 1.14-1.9 1.78-2.82a26.63 26.63 0 0 0 2.39-4.45 39.6 39.6 0 0 1 1.93-3.71c.28-.5.18-1.26.72-.73.42.4 1.08.67 1.64.77 2.45.45 4.7.92 7.22.72 2.55-.2 5.1-.57 7.6-1.05.86-.17.5.03.1.55-.7.88-1.27 1.8-1.93 2.7-.85 1.16-1.15 2.55-1.65 3.88-.56 1.46-1.22 2.85-1.75 4.33a28.8 28.8 0 0 1-4.36 7.88c-1.07 1.4-2.4 3.83-4.4 3.73-3.1-.15-1-6.26.47-7.46.8-.64 1.68.05 1.77.92.14 1.18-.27 2.8-1.42 3.39-1.22.6-2.15.53-1.21-1.04.56-.96.9.1 1.13-.37m211.5 220.4c.57-.72 1.66-2.05.14-2.29-.34-.05-.67-.25-1-.1-1.04.47-2 1.5-2 2.74 0 1.97 2.15 2.4 3.72 2.37 2.65-.04 3.45-2.62 4.39-4.71.94-2.11 2-4.19 2.97-6.28 1.11-2.38 2.93-4.27 4.08-6.62.5-1 1.14-1.9 1.77-2.81a26.64 26.64 0 0 0 2.4-4.45 39.3 39.3 0 0 1 1.93-3.71c.28-.5.17-1.26.72-.73.42.4 1.08.67 1.64.77 2.45.45 4.7.92 7.22.72 2.55-.2 5.1-.56 7.6-1.05.86-.17.5.03.09.55-.68.88-1.27 1.8-1.92 2.7-.85 1.16-1.15 2.56-1.66 3.88-.55 1.46-1.21 2.85-1.74 4.33a28.82 28.82 0 0 1-4.36 7.88c-1.08 1.4-2.4 3.83-4.4 3.73-3.1-.15-1.01-6.26.47-7.45.8-.65 1.67.05 1.77.9.13 1.2-.27 2.82-1.42 3.4-1.22.61-2.15.54-1.21-1.04.56-.95.9.1 1.13-.37"/>
    <path stroke="#00ADB5" stroke-linecap="round" stroke-linejoin="round" stroke-opacity=".5" d="M421.3 159.66c-2.59-4.7-2.44-6.04-1.85-10.78.33-2.6.46-5.16 1.12-7.72 1.18-4.59 1.56-10.77-2.14-14.46-7.26-7.27-20.8 3.07-16.7 12.29 1.56 3.5 4.25 6.1 6.2 9.42.78 1.33 1.22 2.76 2.23 4 .98 1.2 2.19 2.68 2.19 4.15 0 1.25-.38 2.87.5 3.97 1.23 1.53.8.74 2.6.74 1.24 0 3.07-.98 4.07-1.78.71-.58 1.1 1.08 1.1-.52 0-1.36-.44-.22.46-.22m-5.52 5.28c2.46-.73 9.26-2.37 7.69-.34-1.9 2.44-2.72 1.21-5.05 1.73-1.19.27-2.35 3.94-1.03 4.02 1.88.11 3.13-2.42 5.05-2.42 1.75 0 1.63 2.3.58 3.11-1.38 1.08-2.98-.08-3.9 1.6-1.48 2.64 2.54 2.21 3.68 1.6 1.15-.64 2.24-1.62 3.09-2.18"/>
    <path stroke="#00ADB5" stroke-linecap="round" stroke-linejoin="round" stroke-opacity=".5" d="M421.3 158.92c-.03.2-.06 1.55-.6 1.55-.29 0-.42-.18-.69-.03-.3.17-.6.58-.9.82-.26.21-1.04.18-1.2.45-.24.42-.74.66-1.2.71-.6.07-.82.37-1.46.23-.2-.05-.22-.17-.4-.17-.29 0-.4.13-.62-.1-.24-.27-.62-.39-.74-.79-.15-.54-.72-.83.12-.49m-3.39-24.93c1.03 0 1.88.08 2.23 1.17.24.74.24 1.47.24 2.23 0 .75-.46 1.36-.46 2.06 0 .93.75.78 1.38 1.06.6.27 1.02.5 1.35 1.1.32.59.07 1.74.03 2.38-.04.56-.3 1.74.08 2.2.21.26 1.35.65.6.1m-14.12-1.9c-.82.55-1.66 1-2.58 1.35-.39.14-.9.4-.81-.2m.4-9.08c-1.46.36-2.9.75-4.35 1.14-.24.06.31-.54.33-.56m3.62-8.1c-1.51-.22-3.02-.5-4.52-.76-.69-.12-.98-.03-.6-.62m13.27-6.6a11.7 11.7 0 0 1-3.3-.95c-.5-.26-1-.56-1.52-.76-.63-.25-.64-.17.06-.6m15.16-2.86a4.8 4.8 0 0 1-.38 3.05c-.26.6-.49 1.35-.62 2-.04.21-.07.34-.22.5-.05.07.15-.67.19-.79m9.82.12c-.38 1.27-.93 2.49-1.25 3.76-.17.64-.06.68.21.03m4.71 5.34a23.03 23.03 0 0 0-3.38 3.92c-.13.17-.28.23-.42.38-.32.32.23-.4.3-.5"/>
    <path stroke="#00ADB5" stroke-linecap="round" stroke-linejoin="round" stroke-opacity=".5" stroke-width="2" d="M136.73 247.19c1.91 8.6 4.06 17.22 5.33 25.95.7 4.88-.85-2.16-1.04-3.15-.42-2.16-.9-4.06-.9-6.27 0-4.43-.11-8.91-.44-13.35-.23-3.1-4.05-12.36.78-4.64 4.91 7.87 8.39 16.57 11.72 25.15.47 1.19 1.1 2.3 1.6 3.44.28.62-4.88-4.42-6.87-5.5"/>
    <path stroke="#00ADB5" stroke-linecap="round" stroke-linejoin="round" stroke-opacity=".5" stroke-width="2" d="M133.77 266.27c5.5-2.2 17.66-6.35 21.2-12.53 1.47-2.6 1.19-1.4-2.97-.62"/>
    <path stroke="#00ADB5" stroke-linecap="round" stroke-linejoin="round" stroke-opacity=".5" stroke-width="2" d="M150.3 237.44c4.25 8.42 7.33 17.38 8.5 26.73.11.87.31 1.82.92 2.43a127 127 0 0 0-2.64-5"/>
    <path stroke="#00ADB5" stroke-linecap="round" stroke-linejoin="round" stroke-opacity=".5" stroke-width="2" d="M150.3 237.01c3.3 1.98 15.41 9.28 7.51 13.92-.69.41-1.5.79-2 1.44-1.05 1.38-1.17 1.79-.42-.1m5.93-19.49c1.4 9.51 3.82 19.97 3.82 29.67 0 2.14-.36-1.82-.85-2.97m6.78-9.75c2.33 6.94 3.53 11.03-3.3 13.05-2.32.7.5-2.7 1.09-3.1 2.04-1.42 4.07-5.97 1.79-8.25-.9-.91-3.08.24-3.72-.85-.94-1.6 1.17-4.64 2.45-5.42 3.68-2.25 3.22.92 1.7-.1m127.35-124.08c1.4 7.4 7.19 28.99 3.82 22.26a5.04 5.04 0 0 1-.7-2.17c-.1-3.04-.34-6.22-1.39-9.11-.88-2.42-.7-4.93-.7-7.5 0-.51-.87-4.57-.78-4.6.88-.29 4.53 4.15 5.2 4.91 3.33 3.87 6.7 8.31 9.1 12.85 1.22 2.33 1.59 3.17-1.34 3.53"/>
    <path stroke="#00ADB5" stroke-linecap="round" stroke-linejoin="round" stroke-opacity=".5" stroke-width="2" d="M298.08 135.94a80.7 80.7 0 0 1 9.73-4.18m-.34-10.43c3.34 5 6.52 10.33 10.4 14.95.56.66 1.73 1.86 1.73.31 0-2.1-1.17-4.29-1.7-6.3-.85-3.2-1.64-6.42-2.36-9.65-.7-3.12-.2-1.96.97.38a61.96 61.96 0 0 0 6.68 10.86c1.82 2.32 2 1.03 2-1 0-3.7-1.8-6.73-3.12-10.05-1.42-3.54-1.32-8.38-2.94-11.6-.62-1.26-.71 2.71-.88 4.1m7.99-4.52c.1.41 1.39 10.54 3.67 9.4 1-.5 1.25-2.04 2.28-2.56 1.67-.83 3.48.65 4.14 2.09 1.73 3.81-.27 8.23-3.4 10.55-4.35 3.21-2.86-2.57-2.86-4.18"/>
    <path stroke="#00ADB5" stroke-linecap="round" stroke-linejoin="round" stroke-opacity=".5" stroke-width="2" d="M328.33 108.12c-.63 1.71-1.76 9.65-2.1 6.57-.22-1.9.16-3.35.36-5.18.48-4.34 3.8-.85 2.43-3.13M305.14 336.5c-.12-.2-5.13-8.84-4.7-9.1.6-.34 1.73 0 2.44-.27 2.09-.78 3.77-2.4 5.5-3.74 1.81-1.41 4.3 9.65 4.84 11.98.67 2.81 2.4 6.56-.84 8.19-2.93 1.46-6.8 1.02-10 .95-5.21-.12-8.82-8.69-9.43-12.95-.44-3.1-4.74-13.08-.13-15.07 1.24-.54 3.34-.17 4.68-.17 1.92 0 3.6-1.14 5.55-1.14 3.1 0 4.04 3.88 1.33-.38m9.52 3.04c.54 1.98 2.28 12.92 6.86 10.12.87-.53 1.5-1.83 1.82-2.75.84-2.47 1.02-4.53-.87-6.41-1.41-1.42-4.15-4.3-6.2-4.38-5.1-.2-.6 5.5-1.23 4.57m.38-18.67c3.76 5.95 9.44 12.5 11.73 19.34.29.88.3 1.47.84 2.29.82 1.23 1.21 3.02 2 1.14 1.12-2.72 3.69-5.14 5.7-7.24 2.5-2.58 2.84-1.82-1.6-1.82m7.62-15.61c-.48 1.06-7.65 15.26-.72 12.04 1.38-.64 2.78-1.64 2.6-3.28-.18-1.58-1.5-2.82-2.18-4.2-.39-.77-1.93-4.5-1.4-3.42 1.6 3.18 3.73 8.85 6.1 11.21 2.75 2.76 4.4-.13 1.69-1.69m-1.9-9.14c10.6 16.82-2.82-2.05.27-5.35 2.99-3.2 6.52 2.94 7.64 4.89 1.95 3.39 3.87 12.2.85 3.13m4.57-17.14c-.18.63-5.87 16.63-1.61 15.15a9.06 9.06 0 0 0 4.6-3.7c1.1-1.9 1.62-4.5.82-6.59a31.86 31.86 0 0 0-1.9-4.27c-1.81-3.16 3.05 6.6 4.5 9.92 2.13 4.88 7.25 21.98-4.82 18.58-5.27-1.48-.31-9.67-.83-9.67"/>
    <path stroke="#00ADB5" stroke-linecap="round" stroke-linejoin="round" stroke-opacity=".5" d="M208.55 206.76c1.9-.51 3.5-1.04 4.84-2.54.52-.59.6-1.34.86-2.06.35-.92-.08-2.11-.38-3-.24-.72 1.06-1.12 1.52-1.15.8-.05 1.41.46 2.18.5.92.06 1.9.35 2.54 1.07.43.49 1.01.6 1.5 1.02.45.4.8 1.1 1.13 1.62.96 1.49 1.23 3.22 1.5 4.92.13.82.22 1.7.08 2.53-.17.98 0 1.93-.38 2.87-.27.65-.7 1.52-1.3 1.9-.63.4-1.22.54-1.38 1.36-.33 1.7.53 3.38.2 5.1-.3 1.54-2.32 1.78-3.58 2.02-.86.17-2.43.44-3.26-.02a13.22 13.22 0 0 1-3.83-3.24c-1.02-1.19-1.4-2.93-1.54-4.45a44.79 44.79 0 0 1-.1-4.8c.02-1.05.32-2.1.42-3.13.08-.85.35-.92-.09.16"/>
    <path stroke="#00ADB5" stroke-linecap="round" stroke-linejoin="round" stroke-opacity=".5" d="M219.52 199.03c.64-1.65 1.34-3.3 1.83-5 .22-.77.28-1.57.55-2.32.32-.87.48-1.85.61-2.75.1-.66.15-1.8.75-2.22.43-.3.68-.98 1.14-1.34.6-.46 1.45-.89 1.87-1.5.42-.61.86-1.86.51-2.56-.19-.39-.16-.8-.35-1.2-.25-.49-.48-.9-.67-1.43-.16-.47-.68-1.42-.08-1.75 1.48-.82 1.58.47 2.04 1.65.24.6.27 1.35.5 1.98.14.44.4.12.61.37.3.38.32.84.55 1.25.35.6-.06 1.83-.23 2.43a22.3 22.3 0 0 1-1.15 3.14c-1.24 2.72-3.27 5-4.66 7.64-.52 1-.95 2-1.2 3.12-.15.63-.58 1.22-.58 1.89 0 .6-.15.92.17-.04"/>
    <path stroke="#00ADB5" stroke-linecap="round" stroke-linejoin="round" stroke-opacity=".5" d="M226.15 178.53c-1.08.17-2.26.23-3.23.72-.13.06.07-.11.17-.12 1.3-.15 2.71-1.31 3.9-1.87.87-.42 2.07-1.36 3.07-1.36.3 0-.96.8-1.1.93m-3.91 3.57c1.2-.7 3.3-1.46 4.18-2.63.09-.12.15-.27.28-.34.43-.25-.34.03-.47.08m-3.14 4c1.44-.55 4.09-1.05 4.88-2.64.12-.23-.14-.17-.3-.17m-3.05 2.64c-.1 1.95-.08 3.93-1.19 5.6-.54.82-.92 1.36-1.1 2.31a10.9 10.9 0 0 1-.9 2.8c-.46.92-1 1.67-1.45 2.55-.24.46-.81.9-.7 1.45.06.28-.08.53-.17.78-.27.77-.76 1.45-1.23 2.11-.32.45-.31 1.26.1.43"/>
    <path stroke="#00ADB5" stroke-linecap="round" stroke-linejoin="round" stroke-opacity=".5" d="M220.54 197.07c.77.17 1.93.68 2.72.68l-.76-.93m-1.45-3.23c1.08.46 2.17.92 3.25 1.4.25.11.24.13.15.04-.19-.19-.34-.39-.51-.6m-1.87-3.14c1.3.4 2.61.84 3.94 1.2.14.04.35.12.2-.03-.28-.3-.6-.56-.9-.83m-2.56-3.23c1.49.72 2.97 1.5 4.5 2.16.25.1.33.18.28-.02-.07-.27-.17-.52-.27-.78m-2.64-3.4c.14.06 4.25 2.3 3.91 1.44m-3.06-2.8c1.24.29 2.5.55 3.74.76m-2.38-2.12 1.7.08m-12.93 25.43c-.58.23-4.22 1.14-4.25 2.14 0 .4 0 .79.05 1.18.15 1.2 1 1.84 2.02 2.42a5.2 5.2 0 0 0 4.16.34c1.36-.4 2.25-1.9 1.7-3.2-.11-.26.28-.31.03-.63-.25-.3-.41-.12-.81-.04"/>
    <path stroke="#00ADB5" stroke-linecap="round" stroke-linejoin="round" stroke-opacity=".5" d="M213.82 212.3c.68-1.72 1.52-3.43 1.92-5.24a4 4 0 0 1 .48-1.3c.54-.9 1.02-1.86 1.34-2.87.3-.95.33-1.9.73-2.82.14-.34 1-1.33.63-.87m1.62.85c-.32 1.97-.8 3.85-1.13 5.8-.18 1.08-.49 1.98-.49 3.12 0 .8.3 1.49.1 2.3-.2.94-.4.48-.78-.17m1.45-11.05c-.6 1.23-1.87 3.25-1.87 4.8 0 .89.06 1.82 0 2.72-.08 1.06-.91 2.44-1.41 3.36-.16.3-.38.54-.48.87-.13.41-.04.44-.32-.02"/>
    <path stroke="#00ADB5" stroke-linecap="round" stroke-linejoin="round" stroke-opacity=".5" d="M213.57 210.5c1.44 1.04 4 3.16 5.78 1.33.28-.29.68-.9.83-1.26.21-.5-.47-.07-.92.02m-3.99-1.61c.82-.03 2.5.2 3.3-.22.02-.01-.07 0-.1.03-.07.06-.23-.04-.31-.07m-1.96-2.89c.6.16 2.8 1.1 2.9.08m-1.88-2.63c.75.49 3.8 2.76 3.32.34m-2.47-1.53 2.3.6m1.44-.6c.95.89 2.84 2.96 2.9 4.52.04 1.28 0 2.5 0 3.8 0 .93.17 1.93.08 2.82-.12 1.17-1.92 1.18-1.49 2.55.15.46.02.73.42 1.06.35.28.6.62.73 1.06.3 1.06-.3 2-1.02 2.73-.45.45-1.04 1.36-1.57 1.65-.27.15-.8.05-1.1.05-.29 0-.86.18-1.1.3-.38.16-.86-.14-1.33.04"/>
    <path stroke="#00ADB5" stroke-linecap="round" stroke-linejoin="round" stroke-opacity=".5" d="M208.55 207.02c.34 1.14.6 2.09 1.17 3.06.24.4.2.77.1 1.23-.12.55-.52 1.83-.2 2.38.47.87.46 1.78.46 2.73 0 .91 1.43 1.31 1.9 1.78.7.7.4 1.6 1.55 1.9.25.06.64.07.84.23.15.12.32.42.52.46.4.08.95 0 1.31.16.3.13.53.33.81.48.3.17.73-.02 1.06.15 1.15.57.64.03-.17-.61m-93.97-56.66c-2.28 2.9-12.03 14.54-3.72 17.18 2.58.81 5.94-1.07 8.72-.8 3.93.39 6.14 3.73 7.1 7.2 1.12 4-5.02 11.1-2.07 13.26 5.06 3.68 12.35-2.55 16.53 2.4 2.37 2.8-.12 6.87 1.35.26m86.2-84.79c2.2 2.9 7.4 9.44 9.36 13.17 1.67 3.17-.43 3.04-2.22 1.78-2.14-1.5-1.84-4.71-1.23-6.93 2.06-7.5 15.4-14.4 16.91-2.87.53 4.05-3.09 10.85-8.01 9.24-6.51-2.12-6.1-12.05-1.17-15.73 5.03-3.78 13.28.56 13.28 6.72 0 6.85-8.14 8.97-11.3 2.93-2.86-5.49 2.22-11.23 7.67-12.05 2-.3 7.18 2 3.57 3.21m83.2 52.67c-3.4 3.39-14.18 11.29-5.11 14.36 5.27 1.8 10.16-1.14 13.43-5.15 3.6-4.41 4.22-11.4-1.52-14.27-4.47-2.24-8.32-5.82-12.06-.2m121.66 51.6c-6.52 3.88-16.4 8.57-6.32 12.23 1.55.56 2.55.2 3.92-.76 5.04-3.54 5.33-4.96 5.03-10.41-.2-3.62-5.49-2.8-7.9-1.59-3.56 1.79-6.05 5.35-7.49 8.96-1.94 4.85 8.1 4.56 9.48-1.29.87-3.66-3.32-8.87-6.2-4.39-3.82 5.94 2 11.24 5.67 5.03 3.52-5.94-4.7-8.4-6.9-1.46-2.9 9.12 14.35-.78 8.07-3.92-3.74-1.87-10.06 10-3.16 7.05 8.38-3.59-1-8.88-1-.5 0 6.8 11.26-3.06 3.93-5.73-1.68-.6-3.33 4.75-2.14 5.94 2.08 2.08 5.69-3.3 5.5-5.24-.79-8.3-8.92 12.82.76 3.13 2.22-2.21 2.13-6.21-1.55-3.86-2.16 1.39-3.53 7.28.56 5.91 3.93-1.31 3.93-8.6-.3-6.9-2.57 1.03-3.5 4.68-6.28 4.12m-50.56 47.93c-1.09 1.2-18.44 22.6-9.72 11.7 2-2.5 3.83-4.95 6.56-6.7 1.68-1.08 3.3-1.75 4.74-3.19 1.57-1.58-.66-1.47-1.02 1.81-.32 2.87-.08 15.36-.56 15.33-3.25-.19-5.39-3.39-8.4-4.44-1.61-.57-6.4.25-5.06-.82 3.26-2.61 13.25-10.1 10.3-7.14-2.24 2.24-6.84 10.65-5.27 7.9 1.12-1.95 4.14-8.32 3.69-7.26-.93 2.2-2.54 5.95-2.4 8.37.13 2.3 4.69-3.35 4.97-3.92 2.12-4.23-2.25 5.28-.7 3.01 1.4-2.04 6.14-7.22 2.75-2.13-.74 1.11 3.52-4.03 2.75-2.93-.22.32-2.15 3.56-1.02 2.43 4.04-4.04-1.91.16-2.67-.96m-34.23 76.36c1.85-2.63 12.38-14.2 3.72-14.72-1.46-.08-4.48-.56-5.7.44-2.91 2.38-1.65 8.8 2.28 9.5 5.2.96 10.09-6.17 4.44-8.91-5.9-2.87-19.82 8.65-13.8 13.4 11.83 9.34 22.53-17.81 7.22-13.9-13.88 3.54-1.65 17.84 4.65 8.63 6.75-9.87-14.06-9.95-10.38 1.08 1.81 5.44 7.76 2.82 8.83-1.58 1.57-6.44-4.84-3.78-4.94.68-.11 4.77 7.24-3.87 2.84-3.49-3.19.28-3.5 4.65-6 4.65m-202.76-45.29c1.06 4.83 3.16 19.43 3.16 14.49 0-3.41-2.6-6.6-3.13-10.01-.18-1.2.2-4.72-.82-5.53-.7-.55 5.87 4.55 7.6 5.53 3.19 1.79 5.47 5.13 8.23 1.58 1.33-1.7 5.23-1.94 5.76-2.37 3.9-3.12 3.55-7.78 4.45-11.85.32-1.45-.5 4.96-.5 6.85 0 2.4.44 5.6 1.09 7.87.92 3.21.55-5.86-.33-7.6-1.41-2.85-1.28-5.36-1.28-8.44 0-1.2 8.8 14 7.25 15.16-.64.49-9.27-1.9-11.88-1.05-2.25.72-4.3 1.56-6.43 2.63-.59.3-1.55 1.35-1.17 1.05 1.33-1.07 5.43-4 3.8-3.45-2.23.75-4.42 2.9-6.44 4.1-3.8 2.25-5.02 1.93-6.6 5.79-.24.56 2.6.48 3.15.64 3.99 1.14 6.5-1.96 10-3.39 4.55-1.84 9.76-5.63 14.64-6.2 3.68-.44-1.92-1.73-2.11-2.11M363.9 106.9c9.93-3.17 26-6.83 34.88-14.1 1.61-1.31 4.1-2.58 3.54-5.11-2.12-9.54-6.73-11.78-15.82-10.77-5.05.56-9.9 5.21-14.58 7.1a88.43 88.43 0 0 0-14.04 7.32c-4.45 2.84-1.87 4.24-1.87 9.13 0 2.7 1.6 6.44 4.47 6.44 1.31 0 5.06-1.05 1.35-1.05-2.91 0-7.43.44-10.03-.94-2-1.05 1.93-3.13 2.86-3.25 3.33-.44-3.81 2.81-4.53 3.04-1.49.48 5.35-4.7 1.55-3.48-4.12 1.33 2-2.22 3.27-2.87 1.45-.72.19.43.53-.17.55-.96 3.71-4.47.85-1.61-.96.96 2.16-1.64 3.22-2.49 1.99-1.6-.54.83-1.03 1.23-2.25 1.84-2.78.36-4.62 1.17-.76.34-2.63 1.47-2.63.15 0-2.29 8.06-3.33 9.54-3.4 9.02-.4 15.33-4.38 23.64-6.46 4-1 8.36-2.44 12.1-4.21 2.79-1.32 8.35-5.44 11.3-4.6 1.16.33-16.72 10.74-11.58 7.35 4.25-2.81 9.12-4.78 2.75.5-5.1 4.22 3.87-.7 4.59-.42 1.29.52-7.93 5.78-.9 2.55 2.68-1.24 4.9-1.3 4.9-4.21 0-3.96 1.1-8.65-3.94-6.82-5.8 2.11-10.47 6.62-16.47 8.4-4.14 1.22-8.18 2.76-12.23 4.2-4.71 1.69-13.24 3.57-16.6 7.67-1.78 2.2-4.97 10.71 1.62 7.03 6.04-3.39 7-10.23 10.24-15.63 1.6-2.68-2.8 5.66-3.46 8.72-.74 3.52 2.57 7.56 6.35 6.9 4.16-.72 8.53-6.45 10.01-9.94 7.13-16.77-5.8-.5-2.14 3.16 3.9 3.89 9.82-6.41 10.6-8.95.93-3.06 1.48-6.84 2.6-9.75 1.45-3.77-7.82.48-8.69.91-4.82 2.38-8.19 5.56-11.47 9.77-1.19 1.53-5.95 8.7-2.7 10.33 4.38 2.19 9.75-4.6 9.87-8.13.41-11.95-9.42-5.83-15.36-1.14-3.67 2.89-.48 8.67.17 8.01M230.67 392.35c-.23.18-8.9 7.65-8.9 5.53 0-1.25.96-2.58 1.82-3.4 1.69-1.6 8.36-2.85 6.76 1.08-1.08 2.64-5.49 6.53-6.73 1.56-.52-2.07 3.02-6.21 5.18-4.45 2.37 1.94-2.73 4.41-4.34 3.54-2.86-1.56.58-7.12 3.34-5.97 2.89 1.2-1.08 4.5-2.4 5.15-3.07 1.54-2.64-.95-4.21-2.52m-133.24-1.05c3.03 5 8.82 10.2 2.92 14.75-1.52 1.17-10.48 5.87-9.94.4.65-6.64 10.56-6.8 11.17-12.75.61-5.9-13.47-3.67-16.67-7.67-2.01-2.5-3.63-8.04-3.16-11.23.18-1.25 3.33-3.66 3.01-1.4-.59 4.11-13.87 14.67-6 18.13 5.28 2.33 6.65-3.56 10.54-4.97 8-2.91-3.98 18.7-3.98 13.17M346 460.28c-2.44 5.77-7.37 23.56-7.37 17.3 0-.98.19-1.75.53-2.67a50.98 50.98 0 0 1 6.08-12.05c1.46-2.06 3.19-8.09 5.27-3.51.97 2.13 3.74 8.07 2.57 10.41-1.47 2.94-6.03 4.63-9.07 4.74-.79.03-9.1 1.12-6.4-1.34 3.16-2.9 6.22-11.72 11-12.32.73-.1 2.27.4 2.92.76 1.14.63-.25 1.78-.79 2.66-.65 1.06-5.78 8.22-5.8 7.9-.14-4.8 4.79-11.77 7.44-15.39.95-1.3-4.11 7.52-5.27 9.51-.89 1.54.28 4.81-3.74 4M182.74 36.86c-2.35 9.2-4.44 17.96-5.3 27.33-.08.94-.67 1.55-.08 2.28.88 1.1 3.2-5.88 4.1-7.75 2.83-5.93 6.02-8.26 6.02-15.54v-3.1c0 3.39.65 6.73.41 10.13-.17 2.56-2.63 9.48-.82 7.66 2.8-2.8.56-16.87-3.83-17.23-6-.5-8.88 12.49-9.57 16.53-.8 4.7 2.52 6.67 6.18 3.01 4.99-4.99 6.07-15.25 1.78-21.1-5.89-8.02-9.75 6.47-10.24 10.01-1.1 8.03 3.39 10.6 8.7 4.9 1.94-2.1 5.88-5.74 5.05-9-1.1-4.32-7.5-.12-8.77 1.76-1.82 2.67-1.8 9.31 1.14 11.21 2.73 1.77 5.4-5.56 5.09-7.4-1.3-7.8-16 4.58-8.7 9 6.37 3.87 10.58-13.39 2.76-11.26-2.18.6-7.35 6.47-2.87 6.47M43.18 186.96c-2.36 6.7-4.07 10.98-10.06 14.74-1.5.95-3.5 2.62-3.8 4.5-.66 4.05 5.7 8.5 9.33 7.3 7.63-2.55-3.92-10.1-5.15-12.3-2.15-3.81 5.61-10.67 9.19-8.66 2.78 1.57 4.01 7.03 2.37 9.69-2.4 3.88-7.56 4.03-11.59 3.42-3.21-.48-9.64.18-7.75 4.95 2.36 5.97 13.51 2.84 15.18-2.23 1.63-4.93-7.18-6.78-5.3-11.4 1.3-3.18 5.4-7.15 9.05-7.15 4.36 0 0 8.15-.65 9.43-2.86 5.63-7.25 6.2-12.81 7.72-10.46 2.87.8 3.27 1.46 0m-2.1 52.13c-1.12 4.22-4.43 11.4-4.1 15.98.15 2.15.74-4.24 1-6.38.48-4.07 1.04-8.67 3.21-12.23.39-.63 9.32 10.52 10.13 12.35 2.15 4.9-.55 3.96-3.93 5.56-1.87.89-14.68 5.4-14.68 4.21 0-1.25 2.41-3.8 2.98-4.85 1.78-3.32 3.7-7.48 4.45-11.18 1.6-7.9.4 8.36.4 9.6 0 .75.3 5.14-1.45 5.14-2.2 0 1.48-4.13 2.22-6.2.78-2.2 3.9-8.66 3.13-10.97-1.1-3.28-1.64 6.76-1.76 10.21-.08 2.34-1.2 6.25.62 2.46.58-1.2 2.46-6.16 2.43-5.8-.27 3.05-1.5 6.19-1.5 9.25 0 3.13 1.66-6.95 4.51-8.25.71-.32-.3 5.63-.3 6.5 0 1.58 1.53-6.1 1.53-4.51 0 .44-.63 3.11-1.11 2.28-1.97-3.4-3.45-5.5-7.5-6.73-1.83-.56-7.68-.17-5.76-.17 1.27 0 3.25-4.4 4.66-3.25 1.86 1.52-.7 6.39-1.3 8.05-.96 2.7-1.57-1.1.83-.82 2.5.3-.05 9.52 1.34 7.43.65-.97 2.61-5.77 2.55-5.21-1.28 10.84-1.01-2.96 1.08.18m257-155.89c6.7-.33 13.17 2.15 12.11-5.8-.52-3.93-2.72-10.36-1.58-14.21 1.23-4.1 8.72-13.32 2.32-16.21-5.37-2.42-12.38 4.43-13.38 9.07-.4 1.93-.32 7.96 2.87 7.96 2.41 0 3.95-2.37 6.06-.27 2.75 2.76 3.24 5.27 1.29 8.72-4.7 8.3-23.26-.97-13.26-10.97 1.37-1.37 6.8-7.66 9.36-5.85 3.54 2.48 3.06 8.95 1.23 12.17-1.82 3.21-8.51 6.57-11.14 2.46-1.3-2.03-.68-3.4 1.49-3.4"/>
    <path stroke="#00ADB5" stroke-linecap="round" stroke-linejoin="round" stroke-opacity=".5" d="M347.34 165.15c.62-.25 19.88-9.77 18.99-4.54-.49 2.8-.16 5.42.23 8.22.15 1.07 2.76 9.42.14 9.42-4.87 0-9.63-2.44-14.5-1.52-2.03.39-6.06 1.77-6.2-1.46-.12-2.43-2.14-13.33 2.65-12.26 3.95.88 4.12-2.26 1.32 4.71-.4.99-3.01 8.42-2.58 8.07 4.39-3.44 6.79-10.05 10.8-14.07 2.5-2.5-1.79 7.55-2.31 8.8-2.67 6.43 4.15-5.43 4.92-6.6 3.36-5.15.8 4.07.29 5.59-1.56 4.56 3.23-3.96 5.15-5.1 6.35-3.75.35 9.22-1 6.53m-69.8 93.43c.3 7.74.17 11.97 6.73 7.08 1.87-1.38 1.07 1.9.62 2.7-.76 1.33-5.24 8.04-.73 5.47 1.14-.66 4.21-1.95 4.21.55 0 .4-1.38 5.24-.03 3.9 2.21-2.22 2.25-10.55 2.37-13.79.03-.7.34-1.53-.3-1.17-3.22 1.85-4.75 11.5-6.43 15.27-1.44 3.26-5.62-.57-8.01-2.1-4.55-2.9-1.7-.84-1.58-1.05m-33.19 52.13c-.01.25-.63 15.37-.52 8.02.03-2.24-.03-4.49 0-6.73.09-6.37 1.22-3.41 3.98-.79 1.26 1.2 5.9 3.8 5.15 6.23-.22.72-7.66 2.01-8.84 2.46-.88.33-6.08 3.61-6.08 3.45 0-3.91 1.38-8.15 1.84-12.05.99-8.27 6.7 13.87 7.08 8.28.09-1.32.03-9.15.03-7.2 0 1.46 1.05 9.21 1.05 4.13v-3.46c0-.54.3 2.06.5 1.55.73-1.82-.5-5.49-.5-1.02 0 5.02-1.4 1.4-4.47 1.4-2.63 0-4.13 9.63-2.78 7.38 1.18-1.97-1.15-10-.12-5.88.54 2.16 1.84-.23 2.63-1.03"/>
</svg>