<svg xmlns="http://www.w3.org/2000/svg" width="401" height="473" fill="none">
    <ellipse cx="175" cy="372" fill="#000" fill-opacity=".5" rx="174" ry="12"/>
    <path fill="#F5B9AB" fill-rule="evenodd" d="M290.61 94.86a22.5 22.5 0 0 1-6.89-4c-16.02-13.65-9.15-34.25.54-44.97 9.7-10.72 69.02-6.45 41.04 43.23l-.36.21c-3.13 9.96-.5 18.5 2.68 28.74 1.29 4.18 2.67 8.64 3.78 13.6l-29.68-2.12c-8.16-11.08-11.25-22.25-11.1-34.69Z" clip-rule="evenodd"/>
    <path fill="#000" d="m283.72 90.86-.45.53.45-.53Zm6.9 4 .23-.66c.28.1.46.37.46.67h-.7Zm-6.36-48.97.52.47-.52-.47Zm41.04 43.23.6.34a.7.7 0 0 1-.24.26l-.36-.6Zm-.36.21-.67-.2a.7.7 0 0 1 .31-.4l.36.6Zm2.68 28.74-.67.2.67-.2Zm3.78 13.6.68-.15a.7.7 0 0 1-.73.85l.05-.7Zm-29.68-2.12-.05.7a.7.7 0 0 1-.52-.29l.57-.41Zm-17.55-39.22a21.67 21.67 0 0 0 6.68 3.87l-.48 1.32a23.06 23.06 0 0 1-7.1-4.13l.9-1.06Zm.61-43.97c-4.76 5.27-8.83 12.97-9.74 21-.9 7.99 1.32 16.31 9.13 22.97l-.9 1.06c-8.21-7-10.57-15.8-9.62-24.2.95-8.36 5.17-16.32 10.1-21.77l1.03.94Zm39.91 42.41c6.95-12.33 8.4-21.72 6.69-28.7-1.72-6.96-6.63-11.68-12.77-14.58-6.15-2.91-13.48-3.98-19.87-3.66-3.2.17-6.14.68-8.56 1.47-2.44.79-4.3 1.85-5.4 3.06l-1.03-.94c1.32-1.47 3.44-2.62 6-3.45a35.07 35.07 0 0 1 8.92-1.53c6.58-.34 14.14.75 20.54 3.78 6.4 3.04 11.69 8.04 13.53 15.51 1.83 7.46.21 17.23-6.83 29.73l-1.22-.69Zm-.1-.04.35-.21.72 1.2-.37.22-.7-1.21Zm2.36 29.55c-3.16-10.22-5.88-18.96-2.68-29.16l1.34.42c-3.06 9.72-.5 18.05 2.67 28.33l-1.33.4Zm3.76 13.54a172.8 172.8 0 0 0-3.76-13.54l1.33-.41c1.3 4.17 2.68 8.66 3.8 13.65l-1.37.3Zm-28.94-2.97 29.68 2.13-.1 1.39-29.68-2.13.1-1.4ZM291.3 94.87c-.14 12.3 2.9 23.31 10.97 34.26l-1.13.83c-8.25-11.2-11.39-22.53-11.24-35.1l1.4.01Z"/>
    <path fill="#00ADB5" stroke="#000" stroke-width="1.4" d="M330.62 59.12c4.65 6.46-.35 22.42-4.05 26.41 30.59-16.97 11.23-55.25 1.79-48.27-1.54-14.16-17.78-19.15-28.85-7.18-27.76-22.42-29.22 15.78-19.43 21.6 9.8 5.8 21.7.27 27.86 3.26 6.17 3 9.98 21.15 11.98 11.07 2-10.07 4.9-14.97 10.7-6.89Z"/>
    <path fill="#EEE" stroke="#000" stroke-width="1.4" d="m358.07 340.99-43.05-3.13L325.38 222s-49.94-118.36-7.07-118.36c60.58 0 80.84 93.34 80.09 118.36-.76 25.02-40.33 119-40.33 119Z"/>
    <path fill="#F5B9AB" stroke="#000" stroke-linejoin="round" stroke-width="1.4" d="m314.7 342.88.6-5.24 43.35 1.75-.95 8.4a21.64 21.64 0 1 1-43-4.91Z"/>
    <path fill="#EEE" stroke="#000" stroke-width="1.4" d="M252.21 257.6c-28-27.15 6.8-117.08 12.47-127.79 8.27-15.25 33.07-41.78 66.17-25.9 50.06 24.02 27.19 142.87 18.19 184.07L252.2 257.6Z"/>
    <path fill="#00ADB5" stroke="#000" stroke-width="1.4" d="m34.15 351.86-4.5-40.8s104.76-33.95 191.1-46.69l118.57 10.24c17.8 42.09 9.02 119.43-123.06 83.87l-182.1-6.62Z"/>
    <path fill="#00ADB5" fill-rule="evenodd" d="m161.1 280.39-18.6 57.9-39.06-1.91-17.82-108a29.38 29.38 0 0 1 28.98-34.17h24.17l1.67-2.6 8.1 2.6c6.5 0 12.36 2.07 17.12 5.5l164.13 52.8a41.93 41.93 0 0 1 23.54 60.77l-25.11 43.81a41.93 41.93 0 0 1-63.5 11.14l-103.61-87.84Z" clip-rule="evenodd"/>
    <path fill="#000" d="m161.1 280.39.46-.53-.8-.68-.32 1 .67.2Zm-18.6 57.9-.04.7.54.02.16-.51-.67-.21Zm-39.06-1.91-.7.11.1.56.56.02.04-.7Zm-17.82-108 .69-.12-.7.11Zm28.98-34.17v.7-.7Zm24.17 0v.7h.38l.2-.32-.58-.38Zm1.67-2.6.21-.68-.51-.16-.3.45.6.38Zm8.1 2.6-.2.67.1.03h.1v-.7Zm17.12 5.5-.41.57.09.07.1.03.22-.67Zm164.13 52.8.21-.67-.21.67Zm23.54 60.77.6.35-.6-.35Zm-25.11 43.81-.6-.35.6.35Zm-63.5 11.14.45-.54-.45.54Zm-104.28-88.06-18.61 57.9 1.33.43 18.62-57.9-1.34-.43Zm-17.91 57.42-39.06-1.91-.07 1.4 39.06 1.9.07-1.4Zm-38.4-1.33-17.82-108-1.38.23 17.82 108 1.38-.23Zm-17.82-108a28.68 28.68 0 0 1 28.3-33.35v-1.4a30.08 30.08 0 0 0-29.68 34.98l1.38-.23Zm28.3-33.35h24.16v-1.4H114.6v1.4Zm24.75-.32 1.67-2.61-1.18-.76-1.67 2.61 1.18.76Zm.86-2.32 8.11 2.6.43-1.33-8.1-2.6-.44 1.33Zm8.33 2.64c6.33 0 12.06 2.02 16.7 5.37l.82-1.13a29.82 29.82 0 0 0-17.52-5.64v1.4Zm16.9 5.47 164.12 52.8.43-1.34-164.13-52.8-.43 1.34Zm164.12 52.8a41.23 41.23 0 0 1 23.15 59.75l1.21.7A42.63 42.63 0 0 0 330 251.84l-.43 1.34Zm23.15 59.75-25.1 43.81 1.2.7 25.11-43.81-1.21-.7Zm-25.1 43.81a41.23 41.23 0 0 1-62.45 10.95l-.9 1.07a42.63 42.63 0 0 0 64.56-11.32l-1.22-.7Zm-62.45 10.95-103.6-87.83-.91 1.06 103.6 87.84.91-1.07Z"/>
    <path fill="#EEE" stroke="#000" stroke-linejoin="round" stroke-width="1.4" d="m102.99 335.94 39.94 2.36 3.1 33.52s-35.04-1.01-56.3-7.66l14.29-7.02-1.03-21.2Z"/>
    <rect width="97.77" height="18.33" fill="#EEE" stroke="#000" stroke-width="1.4" rx="2.01" transform="scale(1 -1) rotate(-75 -14.88 -104.1)"/>
    <rect width="97.77" height="18.33" fill="#00ADB5" stroke="#000" stroke-width="1.4" rx="2.01" transform="matrix(-1 0 0 1 208.72 176.42)"/>
    <path fill="#EEE" stroke="#000" stroke-linejoin="round" stroke-width="1.4" d="m29.95 311.1 4.94 40.78-29.8 8.23s-5.63-35.14-2.9-57.59l9.84 12.94 17.92-4.36Z"/>
    <path fill="#EEE" d="m178 205.62 22.37-37.28 68.59 37.35c-3.14-43.1 26.44-105.14 57.51-101.36 54.5 6.62 14.35 140.97-21.35 164.65-35.71 23.68-127.13-63.37-127.13-63.37Z"/>
    <path stroke="#000" stroke-width="1.4" d="M348.17 186.78c-8.43 35.34-26.24 71.05-43.05 82.2-35.71 23.68-127.13-63.37-127.13-63.37l22.38-37.27 68.59 37.35 23.31-58.49"/>
    <path fill="#F5B9AB" stroke="#000" stroke-linejoin="round" stroke-width="1.4" d="m196.3 165.51 4.28 3.06-22.54 37.08-6.9-4.92a21.64 21.64 0 1 1 25.15-35.22Z"/>
</svg>