<svg xmlns="http://www.w3.org/2000/svg" width="79" height="235" fill="none">
    <path stroke="#00ADB5" stroke-linecap="round" stroke-linejoin="round" stroke-opacity=".2" stroke-width="5" d="M75.8 3.2c-25.62.72-20.9-.26-41.62 19.7-4.73 4.56-11.89 10.1-13.51 18.2-2.4 11.94 12.26 48.09 21.85 34.79 6.2-8.6 5-23.37-4.43-27.28-15.46-6.4-27.9 12.54-32.7 28.9-5.3 18.02-.85 37.72 11.62 49.75 5.7 5.5 14.9 3.01 9.85-8.66-10.37-24-22.36 5.11-20.74 21.06 2.93 28.72 27.6 66.46 50.68 60.47 7.22-1.87 4.86-6.04 1.83-9.13-3.07-3.13-10.8-14.57-8.73-10.23 3.63 7.6 8.23 10.65 13.37 15.11 6.63 5.75-7.59 18.33-11.71 22.81-2.16 2.36-5.3 7.63-5.89 11.47-1.15 7.59 7.18-12.23 8.68-19.68"/>
</svg>
